# Blender v2.74 (sub 0) OBJ File: 'scene.blend'
# www.blender.org
mtllib scene.mtl
o Cube_Cube.007
v -0.948627 2.984095 -4.987812
v -0.948627 6.845480 -4.987812
v -0.948627 2.984095 -8.849197
v -0.948627 6.845480 -8.849197
v 2.912759 2.984095 -4.987812
v 2.912759 6.845480 -4.987812
v 2.912759 2.984095 -8.849197
v 2.912759 6.845480 -8.849197
vt 0.000000 0.000000
vt 1.000000 0.000000
vt 1.000000 1.000000
vn -1.000000 0.000000 0.000000
vn 0.000000 0.000000 -1.000000
vn 1.000000 0.000000 0.000000
vn 0.000000 0.000000 1.000000
vn 0.000000 -1.000000 0.000000
vn 0.000000 1.000000 0.000000
usemtl Material.008
s off
f 4/1/1 3/2/1 1/3/1
f 8/1/2 7/2/2 3/3/2
f 6/1/3 5/2/3 7/3/3
f 2/1/4 1/2/4 5/3/4
f 3/1/5 7/2/5 5/3/5
f 8/1/6 4/2/6 2/3/6
f 2/1/1 4/2/1 1/3/1
f 4/1/2 8/2/2 3/3/2
f 8/1/3 6/2/3 7/3/3
f 6/1/4 2/2/4 5/3/4
f 1/1/5 3/2/5 5/3/5
f 6/1/6 8/2/6 2/3/6
o Cube.002_Cube.009
v 0.102470 2.415478 4.262648
v 0.102470 7.291689 4.262648
v 0.102470 2.415478 -0.613563
v 0.102470 7.291689 -0.613563
v 4.978681 2.415478 4.262648
v 4.978681 7.291689 4.262648
v 4.978681 2.415478 -0.613563
v 4.978681 7.291689 -0.613563
vt 0.000000 0.000000
vt 1.000000 0.000000
vt 1.000000 1.000000
vn -1.000000 0.000000 0.000000
vn 0.000000 0.000000 -1.000000
vn 1.000000 0.000000 0.000000
vn 0.000000 0.000000 1.000000
vn 0.000000 -1.000000 0.000000
vn 0.000000 1.000000 0.000000
usemtl Material.014
s off
f 12/4/7 11/5/7 9/6/7
f 16/4/8 15/5/8 11/6/8
f 14/4/9 13/5/9 15/6/9
f 10/4/10 9/5/10 13/6/10
f 11/4/11 15/5/11 13/6/11
f 16/4/12 12/5/12 10/6/12
f 10/4/7 12/5/7 9/6/7
f 12/4/8 16/5/8 11/6/8
f 16/4/9 14/5/9 15/6/9
f 14/4/10 10/5/10 13/6/10
f 9/4/11 11/5/11 13/6/11
f 14/4/12 16/5/12 10/6/12
